<svg xmlns="http://www.w3.org/2000/svg" xmlns:xlink="http://www.w3.org/1999/xlink" width="590.891" height="480.76" viewBox="0 0 590.891 480.76"><defs><linearGradient id="a" x1="0.5" x2="0.5" y2="1" gradientUnits="objectBoundingBox"><stop offset="0" stop-color="#ee0979"/><stop offset="1" stop-color="#ff6a00"/></linearGradient></defs><g transform="matrix(-0.966, -0.259, 0.259, -0.966, 521.425, 480.757)"><g transform="translate(-0.001 -0.003)"><path d="M76.833,171.067Q69.589,173,62.5,175.619c27.659,28.473,58.514,53.711,87.026,59.832,24.192,5.191,54.234-6.063,77.651-11.1a789.2,789.2,0,0,0,100.275-28.608c4.9-1.762,9.8-3.564,14.682-5.462a1404.477,1404.477,0,0,0-150.809-23.243C153.129,163.281,114.1,161.15,76.833,171.067Z" transform="translate(58.559 153.567)" fill="url(#a)"/><path d="M252.459,172.079c46.331,1.937,88.885-28.55,120.787-64.964,26.226-29.945,47.648-64.5,72.654-95.49-1.356-.194-2.712-.426-4.068-.581-37.5-4.532-74.727,4.261-111.393,12.609s-74.165,16.27-111.548,10.072c-31.146-5.268-60.916-20.067-91.713-28.3S62.331-3.658,36.609,17.048C7.187,40.678-4.086,88.036,1.3,131.714c15.592-14.527,34.109-24.638,54.583-27.33C125.049,95.28,182.846,169.251,252.459,172.079Z" transform="translate(0.001 0.003)" fill="#f2bc06"/><path d="M416.638,127.732c-24.076,35.136-42.38,77.942-77.787,99-38.312,22.817-86.309,13.345-126.539-5.21S134.99,175.942,92.823,163.41c-26.362-7.748-56.287-8.426-81.583,1.356,12.086,24.831,27.911,47.493,44.549,68.18,14.817,18.343,33.838,41.625,54.679,63.066q7.089-2.615,14.333-4.552c37.266-9.917,76.3-7.748,114.492-4.009A1404.606,1404.606,0,0,1,390.1,310.694c46.6-18.052,92.256-43.232,123.808-87.762,34.865-49.179,47.145-127.6,15.379-182.613-.988-1.7-2.034-3.332-3.1-4.959a270.123,270.123,0,0,0-109.552,92.372Z" transform="translate(10.533 33.135)" fill="#d70060"/><path d="M445.272,6c-25.006,30.991-46.486,65.642-72.654,95.587-31.9,36.414-74.455,66.863-120.787,64.964-69.613-2.925-127.411-76.9-196.579-67.734C34.779,101.51,16.262,111.62.67,126.089c.523,4.223,1.182,8.406,1.937,12.551a223.251,223.251,0,0,0,18.459,53.614c25.3-9.685,55.222-9.162,81.583-1.356,42.167,12.493,79.259,39.494,119.489,58.108s88.227,28.027,126.539,5.21c35.407-21.054,53.711-63.919,77.787-99A270.124,270.124,0,0,1,536.075,62.868C514.594,29.359,479.73,11.094,445.272,6Z" transform="translate(0.629 5.627)" fill="#f18d05"/></g></g></svg>