<svg xmlns="http://www.w3.org/2000/svg" xmlns:xlink="http://www.w3.org/1999/xlink" width="562.129" height="389.293" viewBox="0 0 562.129 389.293"><defs><linearGradient id="a" x1="0.5" x2="0.5" y2="1" gradientUnits="objectBoundingBox"><stop offset="0" stop-color="#ee0979"/><stop offset="1" stop-color="#ff6a00"/></linearGradient></defs><g transform="translate(562.096 389.294) rotate(180)"><g transform="translate(-0.033 0)"><path d="M403.077,110.656c-25.279,17-42.137,41.922-59.874,65.392s-38.232,46.975-67.094,58.459c-30.9,12.326-67.076,9.083-98.643,19.958-21.5,7.453-39.253,20.764-55.986,35.383L172.253,301.3c43,9.71,87.912,19.438,131.052,10.373C362.086,299.325,406,254.052,432.978,205.322c19.062-34.452,31.5-73.113,32.785-111.4C444.247,91.683,420.867,98.724,403.077,110.656Z" transform="translate(96.218 74.017)" fill="url(#a)"/><path d="M477.362,77.243C446.637,93.367,422.5,117.5,396.939,139.678s-54.41,43.284-89.04,50.379c-61.845,12.684-122.005-21.5-183.2-36.512A305.6,305.6,0,0,0,4.66,149.138c6.145,18.041,14.78,35.383,22.717,53.335,11.932,26.873,15.676,53.191,44.072,71.3,22.448,14.332,49.805,20.6,76.482,26.623L213.95,315.3c16.733-14.619,34.4-27.93,55.986-35.383,31.567-10.875,67.739-7.632,98.643-19.958,28.862-11.484,49.339-34.989,67.094-58.459s34.595-48.372,59.874-65.392c17.79-11.932,41.206-18.973,62.7-16.733a176.4,176.4,0,0,0-7.274-57.33C526.128,59.094,499.416,65.723,477.362,77.243Z" transform="translate(3.748 48.56)" fill="#d70060"/><path d="M362.652,3.672C306.719,17.306,264.725,65.051,207.18,71.16,153.2,76.911,96.982,44.287,46.424,62.2A81.032,81.032,0,0,0,15,82.734c51.955,6.844,99.324,29.829,147.033,49.7,49,20.424,102.441,38.16,155.865,31.1,51.561-6.826,95.58-35.634,139.419-61C478.279,90.42,500.6,78.828,523.8,70.5,490.354,21.23,424.12-11.305,362.652,3.672Z" transform="translate(11.933 0)" fill="#f2bc06"/><path d="M329.816,132.386c-53.442,7.059-106.884-10.749-155.865-31.1C126.224,81.416,78.855,58.43,26.9,51.586,8.339,70.971-.869,98.686.026,124.825A144.7,144.7,0,0,0,8.3,166.551a305.6,305.6,0,0,1,120.034,4.407c61.2,14.924,121.36,49.2,183.2,36.512,34.631-7.166,63.475-28.2,89.04-50.379s49.7-46.4,80.423-62.436c22.054-11.52,48.766-18.148,73.6-15.282a159.2,159.2,0,0,0-7.417-19.707A138.116,138.116,0,0,0,535.7,39.35c-23.29,8.241-45.577,19.922-66.521,32.033C425.4,96.751,381.377,125.56,329.816,132.386Z" transform="translate(0.033 31.147)" fill="#f18d05"/></g></g></svg>