<svg xmlns="http://www.w3.org/2000/svg" xmlns:xlink="http://www.w3.org/1999/xlink" width="476.256" height="427.303" viewBox="0 0 476.256 427.303"><defs><linearGradient id="a" x1="0.5" x2="0.5" y2="1" gradientUnits="objectBoundingBox"><stop offset="0" stop-color="#ee0979"/><stop offset="1" stop-color="#ff6a00"/></linearGradient></defs><g transform="translate(-0.001 0)"><g transform="translate(0.001 0)"><path d="M172.187,186.75c-26.167-38.837-92.528-31.1-118.679-69.917C39.234,95.612,42.426,66.318,54.732,43.889q1.753-3.176,3.722-6.219A215.641,215.641,0,0,0,24.513,77.913C6.368,106.032-4.5,140.271,1.8,173.055,5.11,190.373,13,206.417,20.791,222.23L81.578,345.557c5.227,10.619,10.768,21.5,17.88,30.981a669.054,669.054,0,0,0,59.927-87.847C177.331,257.28,192.383,216.739,172.187,186.75Z" transform="translate(-0.001 24.639)" fill="url(#a)"/><path d="M249.12,240.764c-18.195-38.821-26.283-87.963-63.929-108.473-28.863-15.73-68.941-9.924-90.973-34.256C78.288,80.386,78.817,52.416,89.089,31A105.4,105.4,0,0,1,99.89,13.43,236.646,236.646,0,0,0,41.022,53.524q-1.968,3.043-3.722,6.219c-12.306,22.446-15.5,51.722-1.224,72.944,26.151,38.821,92.512,31.08,118.679,69.917,20.2,29.988,5.144,70.529-12.8,101.94a669.058,669.058,0,0,1-59.927,87.847,67.172,67.172,0,0,0,19.435,17.914c23.157,13.547,52.55,7.923,78.32.331a664.052,664.052,0,0,0,169-77.03C305.738,316.173,268.919,282.893,249.12,240.764Z" transform="translate(17.431 8.785)" fill="#d70060"/><path d="M162.575.133A223.53,223.53,0,0,0,78.1,22.214,105.4,105.4,0,0,0,67.3,39.78c-10.272,21.5-10.8,49.39,5.144,67.039,22.016,24.4,62.093,18.525,90.973,34.256,37.646,20.51,45.7,69.652,63.929,108.473C247.2,291.677,283.966,324.957,327,342.457q25.043-15.945,48.58-34.09c20.312-15.68,40.177-33.081,51.938-55.957a86.939,86.939,0,0,0,5.177-12.323,137.948,137.948,0,0,1-82.918-3.755c-45.966-17.318-78.816-57.446-109.4-95.936C229.4,126.569,217.82,111.12,218.4,93.471c.463-14.887,9.544-27.921,19.154-39.234,2.216-2.613,4.516-5.227,6.782-7.857a3.72,3.72,0,0,0-.132-.4C232.839,14.589,196.02-1.654,162.575.133Z" transform="translate(39.219 0)" fill="#f18d05"/><path d="M155.748,75.171c-.579,17.649,11,33.081,21.982,46.926,30.584,38.424,63.433,78.551,109.4,95.936a137.949,137.949,0,0,0,82.918,3.755c6.8-20.361,6.2-43.452-5.839-60.936-18.476-26.878-55.262-31.841-87.582-35.794s-69.471-12.918-83.083-42.509c-7.791-16.938-5.657-36.886-11.86-54.468-2.266,2.63-4.565,5.243-6.782,7.857C165.292,47.251,156.178,60.334,155.748,75.171Z" transform="translate(101.854 18.367)" fill="#f2bc06"/></g></g></svg>